<svg width="97" height="74" viewBox="0 0 97 74" fill="none" xmlns="http://www.w3.org/2000/svg">
<path d="M45.0025 73.7685C43.9623 73.6908 42.8019 73.4421 41.6957 73.0536C37.8029 71.6938 35.3384 68.3136 34.8144 63.6163C34.7446 63.0219 34.7019 62.2914 34.7019 61.9806L34.7096 61.4211L34.8222 61.9806C35.0357 63.0296 35.8003 65.0189 36.4212 66.1106C36.6968 66.6002 37.1354 67.2723 37.2014 67.2995C37.2363 67.3151 37.2712 67.3695 37.2712 67.42C37.2712 67.4627 37.4497 67.7191 37.6826 67.9872C39.1342 69.7084 40.8264 70.8701 42.7786 71.4956C44.0671 71.9075 46.2949 72.1833 46.2949 71.9424C46.2949 71.7287 45.9611 69.9299 45.7865 69.2344C45.2198 66.8333 44.2301 64.4167 43.2443 62.9636C42.5147 61.8874 42.1033 61.4483 40.2714 59.7466C38.1755 57.804 37.1625 56.6578 36.4911 55.4883C36.3203 55.1775 36.1923 54.9483 35.7692 54.1557C35.4587 53.5962 34.9619 52.4112 34.7368 51.7468C34.0072 49.5284 33.8442 49.2525 33.2775 49.2525C33.0291 49.2525 32.7264 49.338 32.5711 49.4584C32.5284 49.4934 32.9903 51.7313 33.1572 52.3063C33.5608 53.7167 33.9567 54.7501 34.5389 55.9623C35.0124 56.9337 35.5092 57.7418 36.1534 58.5849C36.7473 59.3581 36.7473 59.393 36.1612 58.9307C34.4263 57.5708 32.6449 54.723 31.399 51.3195C31.236 50.8727 31.0536 50.3481 30.9954 50.1578C30.9372 49.9674 30.8324 49.6605 30.7703 49.4701C29.8349 46.6572 29.8233 44.4037 30.7547 41.5558C31.2515 39.9978 31.9501 38.5525 32.5944 37.7211C33.1106 37.0489 34.0809 36.369 34.8649 36.1398C35.2336 36.0271 36.8753 35.184 37.8029 34.6245C39.9337 33.3346 41.9014 31.6639 43.4811 29.8146C43.8692 29.3678 44.203 28.9792 44.2301 28.9559C44.4358 28.7578 45.3285 27.4756 46.1824 26.1508C46.3725 25.8516 45.9689 26.753 45.6739 27.2619C44.4979 29.3444 43.2831 30.7703 41.3076 32.406C39.7435 33.6959 38.5908 34.4963 37.0966 35.3044C36.4368 35.658 36.3048 35.724 35.1637 36.2757C33.8247 36.9207 33.2736 37.4102 33.033 38.1523C32.9554 38.401 32.8855 38.7273 32.8855 38.8672V39.1353L33.1688 38.9022C34.2944 37.9814 35.7382 37.2004 37.0112 36.8197C37.7253 36.606 37.9659 36.571 38.9013 36.571C39.794 36.5788 40.1122 36.6138 40.7914 36.8041C42.9843 37.4141 44.6687 38.2922 45.4216 39.213C45.67 39.5238 45.7671 40.4951 45.7671 42.8962C45.7671 45.0487 45.6623 46.4823 45.3906 48.1452C45.0918 49.9247 45.0918 49.7964 45.3906 49.8819C46.1203 50.0956 47.2536 50.1073 48.1385 49.9169L48.3946 49.8586L48.1695 49.9868C47.8513 50.1655 46.4851 50.3987 46.0737 50.3404C45.8835 50.3132 45.4643 50.2471 45.1383 50.1927L44.5523 50.0878L44.6027 49.8314C45.2625 46.2375 45.41 44.4814 45.2548 41.7112C45.1771 40.2076 45.084 39.6559 44.8666 39.3451C44.6881 39.0887 43.5587 38.3544 42.7165 37.9503C40.9971 37.1227 39.6814 36.8236 38.1445 36.909C36.3397 37.0217 35.1016 37.5268 33.3163 38.9061C32.9981 39.1547 32.87 39.3179 32.8273 39.5432C32.7419 39.9823 32.87 43.7937 33.0058 44.901C33.2193 46.5872 33.3823 47.5585 33.6074 48.4366C33.8131 49.237 33.883 49.3924 34.2788 49.7964C34.4418 49.9674 34.8533 50.8532 34.8533 51.0358C34.8533 51.2418 35.5053 52.858 35.971 53.8216C36.5454 55.0182 37.0267 55.8264 37.8612 57.0036C38.3579 57.6913 39.2623 58.6276 40.8691 60.1079C42.3206 61.4406 42.5457 61.6581 43.093 62.2914C43.5121 62.7732 44.0477 63.4959 44.0477 63.5891C44.0477 63.6047 44.1409 63.7678 44.2457 63.9504C44.3582 64.1214 44.4708 64.3467 44.5018 64.44C44.529 64.5332 44.6726 64.9062 44.8201 65.2559C45.379 66.5885 46.454 70.1319 46.454 70.6486C46.454 71.1887 46.6015 70.9944 46.7529 70.2601C47.0634 68.6866 48.2044 65.252 48.7905 64.0942C49.3766 62.9519 50.4322 61.7553 52.6833 59.7077C53.6381 58.8374 54.6433 57.8156 55.0469 57.2989C55.3574 56.9026 56.4209 55.3135 56.4209 55.2358C56.4209 55.2086 56.5916 54.8822 56.7973 54.5131C57.2786 53.67 57.8452 52.3374 58.2566 51.0902C58.4973 50.3676 58.6603 50.0412 58.9009 49.7576C59.0989 49.5322 59.2968 49.1631 59.4093 48.829C59.6771 48.0364 59.9954 46.187 60.1662 44.4853C60.3214 42.9467 60.3796 39.6171 60.2593 38.9371L60.1895 38.5409L59.355 38.1446C58.1674 37.5695 57.756 37.4064 56.9332 37.146C56.2734 36.9479 56.0754 36.9207 54.8296 36.9324C53.7972 36.9324 53.3353 36.9751 52.9821 37.08C52.726 37.1655 52.4155 37.2432 52.2952 37.2704C51.8566 37.3636 52.3301 37.1344 53.0248 36.9168C54.8024 36.3651 55.8076 36.4001 57.9073 37.08C58.3886 37.2432 59.0484 37.4918 59.3783 37.6472C59.6966 37.7949 59.9799 37.8959 60.007 37.8726C60.0924 37.7949 59.4909 37.1227 59.1493 36.9013C58.6758 36.6021 57.9539 36.2291 57.2398 35.9105C56.4597 35.5647 55.0896 34.7916 54.1892 34.1816C53.2344 33.5444 52.2797 32.8295 52.039 32.5731C52.0119 32.5459 51.6858 32.2739 51.3094 31.9553C49.7181 30.6305 48.2743 28.8161 47.2807 26.8967C47.0479 26.4499 46.8848 26.0964 46.9043 26.1236C46.9314 26.1508 47.238 26.5976 47.5835 27.1143C47.9289 27.6388 48.2433 28.105 48.2782 28.1478C49.5667 29.799 50.3507 30.6771 51.4491 31.6756C52.858 32.9655 54.4919 34.1855 55.7378 34.8771C56.6925 35.4093 57.2669 35.693 58.1868 36.1087C60.0187 36.9168 60.6513 37.5462 61.5207 39.3878C62.5686 41.5908 63.0499 43.5334 63.0499 45.6159C63.0576 47.1467 62.8597 48.0597 61.9826 50.6473C60.694 54.4316 58.9669 57.3222 57.069 58.8724C56.4247 59.3969 56.3471 59.4125 56.743 58.9501C57.5697 57.9516 58.8311 55.7254 59.3046 54.4354C59.9139 52.7648 60.4379 50.7522 60.4805 49.9285C60.5077 49.4118 60.5077 49.4118 60.2322 49.3341C60.0847 49.2914 59.8285 49.2758 59.6733 49.3069C59.3123 49.3768 59.0212 49.8742 58.6603 51.0203C58.4041 51.8712 58.1635 52.5084 57.8879 53.1028C56.9254 55.1503 56.5373 55.8225 55.6873 56.922C55.3108 57.4038 53.5061 59.2027 52.0507 60.5431C51.1929 61.3434 50.0674 62.5828 50.0674 62.7382C50.0674 62.7654 49.9742 62.917 49.8617 63.0646C49.33 63.7717 48.4334 65.7066 47.9716 67.1402C47.4204 68.8536 46.8887 71.1421 46.8887 71.7948V72.0939L47.5602 72.0434C48.3403 71.9852 49.7259 71.7093 50.4827 71.4684C51.1192 71.2703 52.3029 70.7108 52.7609 70.4C52.9395 70.2795 53.1219 70.1746 53.1646 70.1746C53.1995 70.1746 53.25 70.1474 53.2694 70.1163C53.2849 70.0736 53.4945 69.891 53.7235 69.7045C54.9188 68.7487 55.9668 67.4938 56.7313 66.0834C57.4688 64.7314 57.8142 63.8727 58.2334 62.3342L58.4818 61.4483V61.9651C58.4973 63.0996 58.1363 65.2326 57.7443 66.437C56.483 70.2718 53.9214 72.6146 50.0286 73.5004C48.5926 73.8268 46.9198 73.92 45.0025 73.7918V73.7685ZM35.1793 57.4931C34.8455 57.0191 33.8209 55.2747 33.6501 54.8861C33.099 53.6312 32.6099 52.1082 32.3344 50.8416C32.0511 49.5517 32.0355 49.1709 32.2296 49.0621C32.3848 48.9767 32.9942 49.0116 33.3901 49.1321C33.5686 49.1826 33.588 49.1748 33.5375 49.0272C33.3823 48.6386 32.9631 46.8514 32.8428 46.0433C32.4469 43.4635 32.4236 43.1799 32.4314 41.0974C32.4392 38.739 32.4663 38.7934 31.8298 40.1338C30.8595 42.1736 30.3278 44.8583 30.5568 46.63C30.8052 48.5415 31.2166 50.0606 32.0937 52.3063C32.6682 53.7672 33.3124 55.026 34.0343 56.0906C34.5738 56.8909 34.6087 56.9414 34.9891 57.4077C35.2453 57.7185 35.385 57.7845 35.1793 57.4931V57.4931ZM58.769 56.6073C59.8169 55.1698 60.8997 52.959 61.6216 50.8027C62.8675 47.0418 62.9296 44.4037 61.8273 41.3421C61.5362 40.5146 60.7445 38.875 60.6863 38.9488C60.6785 38.9643 60.7018 39.5161 60.7445 40.1804C60.8221 41.4975 60.8027 42.022 60.5465 44.2677C60.3564 45.9462 60.0497 47.578 59.747 48.5765L59.5413 49.237L59.8324 49.1165C60.2205 48.9533 60.8454 48.9611 60.9851 49.1243C61.1209 49.2952 60.9851 50.2938 60.6319 51.6342C60.1584 53.4253 59.5762 54.8861 58.8543 56.0828C58.6564 56.4014 58.4934 56.685 58.4934 56.7122C58.4934 56.7277 58.4002 56.8754 58.2877 57.023C58.1751 57.1784 58.0393 57.3921 57.9772 57.5126C57.8569 57.7612 58.2877 57.2717 58.769 56.6112V56.6073Z" fill="#FF8E80"/>
<path d="M57.7288 72.459C56.8866 72.0472 56.5877 70.936 57.1195 70.1434C57.9461 68.8885 59.7819 69.1799 60.1273 70.6252C60.4611 72.0083 59.0367 73.104 57.7288 72.459V72.459ZM59.0367 72.1832C59.4055 72.0277 59.7664 71.5965 59.8363 71.2196C59.9139 70.8233 59.681 70.2561 59.3395 69.988C58.9436 69.6694 58.2139 69.6344 57.8103 69.9103C57.3911 70.1939 57.1932 70.6174 57.2359 71.1147C57.3135 72.0083 58.1984 72.5328 59.0406 72.1832H59.0367Z" fill="#FF8E80"/>
<path d="M57.8918 70.9712V70.0698H58.2683C58.7845 70.0698 59.0756 70.1903 59.1959 70.4584C59.2813 70.6487 59.2658 70.7148 59.0911 70.9479C58.9009 71.1966 58.9009 71.2237 59.0407 71.5074C59.2114 71.8687 59.2114 71.8765 59.0251 71.8765C58.9203 71.8765 58.8117 71.7483 58.7146 71.5307C58.6098 71.2976 58.5089 71.1849 58.3964 71.1849C58.2605 71.1849 58.2334 71.2432 58.2334 71.5307C58.2334 71.8143 58.2062 71.8765 58.0626 71.8765C57.8996 71.8765 57.8918 71.8182 57.8918 70.9751V70.9712ZM58.8699 70.8003C58.9553 70.5594 58.8272 70.4117 58.5245 70.4117C58.2567 70.4117 58.2334 70.4389 58.2334 70.6682C58.2334 70.9013 58.2605 70.9246 58.5245 70.9246C58.703 70.9246 58.8349 70.8741 58.8699 70.7964V70.8003Z" fill="#FF8E80"/>
<path d="M0.00818422 59.5135C0.0431147 59.428 1.65768 55.8225 3.6099 51.5137L7.14176 43.6616H7.49494H7.84813L11.38 51.5137C13.3322 55.8225 14.9468 59.428 14.9817 59.5135C15.0244 59.6417 14.9739 59.6611 14.5781 59.6611H14.1123L13.9066 59.1638C13.7941 58.8957 13.6155 58.4839 13.5107 58.243C13.3982 58.0099 13.2197 57.598 13.1071 57.3416C12.9945 57.0852 12.6685 56.3509 12.393 55.7331L11.8845 54.5909H7.49494H3.10535L2.39122 56.2071C1.99534 57.093 1.57617 58.0293 1.46362 58.2896C1.35107 58.5461 1.18806 58.9074 1.09491 59.09C1.00176 59.2804 0.924138 59.4785 0.924138 59.5446C0.924138 59.63 0.79606 59.665 0.442874 59.665C0.0237089 59.665 -0.0306274 59.6495 0.0120654 59.5174L0.00818422 59.5135ZM11.4887 53.7672C11.4887 53.74 11.2131 53.1145 10.8793 52.3646C10.5533 51.6264 10.2273 50.9037 10.1574 50.7561C9.94395 50.2666 9.66839 49.6371 9.55584 49.3807C9.49762 49.2447 9.1095 48.39 8.71363 47.4886C8.30998 46.595 7.87918 45.5887 7.7511 45.2701C7.53763 44.7456 7.5027 44.7029 7.39791 44.8389C7.3397 44.9243 7.2776 45.0448 7.2776 45.1069C7.2776 45.1652 7.20774 45.375 7.11459 45.5809C6.78857 46.3191 4.85575 50.6823 4.78589 50.8455C4.7432 50.9387 4.43271 51.6264 4.09893 52.3685C3.77291 53.1183 3.49735 53.7439 3.49735 53.7711C3.49735 53.7983 5.29432 53.8138 7.49494 53.8138C9.69556 53.8138 11.4925 53.7983 11.4925 53.7711L11.4887 53.7672Z" fill="#FF8E80"/>
<path d="M20.0815 51.6575V43.6577H20.5124H20.9432V51.2262V58.7947H25.4958H30.0484V59.226V59.6572H25.065H20.0815V51.6575V51.6575Z" fill="#FF8E80"/>
<path d="M66.7408 51.6574V43.6421L70.0747 43.6771C73.3582 43.712 73.4087 43.7198 74.0529 43.9335C74.9999 44.2443 75.7024 44.761 76.1565 45.4643C76.8008 46.455 76.9134 47.6828 76.4399 48.6813C76.0634 49.4972 75.0465 50.3947 74.2315 50.6356C73.855 50.7482 73.8783 50.8842 74.2897 50.8842C74.7787 50.8842 76.0867 51.6224 76.7115 52.2518C77.5111 53.0522 77.9923 54.3343 77.8642 55.3406C77.6508 57.1395 76.9017 58.3089 75.5433 58.9889C74.4178 59.5561 74.0646 59.5988 70.1989 59.6416L66.7369 59.6765V51.6613L66.7408 51.6574ZM74.2431 58.6236C74.5691 58.5382 74.9922 58.3672 75.1901 58.2468C75.7568 57.9204 76.3584 57.256 76.6494 56.646C76.9056 56.1138 76.925 56.0361 76.925 55.0881C76.925 54.1323 76.9172 54.0818 76.6339 53.5301C76.4787 53.2115 76.1527 52.7647 75.912 52.5238C75.4812 52.0925 74.5808 51.5874 73.9171 51.4048C73.7036 51.3466 72.4888 51.3116 70.5909 51.3116H67.6024V55.0531V58.7946H70.6375C73.3776 58.7946 73.7153 58.7791 74.247 58.6236H74.2431ZM72.8925 50.4607C73.9753 50.2548 74.9029 49.7031 75.3919 48.9727C76.009 48.0596 76.009 46.8319 75.3997 45.8683C75.0892 45.3788 74.6506 45.0602 73.8278 44.7338L73.2262 44.4852L70.4163 44.4502L67.5986 44.4153V47.4768V50.5384H70.0398C71.3788 50.5384 72.6596 50.5035 72.8925 50.4607V50.4607Z" fill="#FF8E80"/>
<path d="M81.6406 59.3852C81.6988 59.2298 82.2073 58.0953 82.7661 56.8637C83.3173 55.6321 83.8218 54.4898 83.8995 54.3266C84.0275 54.0274 84.2255 53.5962 84.7145 52.52C84.9978 51.91 85.1026 51.6691 85.3859 51.0164C85.4907 50.7833 85.6964 50.3365 85.8323 50.0256C85.9797 49.7148 86.1583 49.3107 86.2437 49.1242C86.3291 48.9339 86.4921 48.5648 86.6124 48.3083C86.7327 48.0519 87.2411 46.898 87.7534 45.7441L88.681 43.6538L89.0575 43.681L89.434 43.7082L89.8531 44.6562C90.086 45.1807 90.3072 45.678 90.3499 45.7752C90.4974 46.1093 90.7691 46.7309 91.0447 47.3254C91.5337 48.3822 91.6385 48.6075 91.8248 49.0465C91.9179 49.2874 92.0926 49.676 92.2013 49.9052C92.6553 50.8959 92.8378 51.3078 93.0085 51.6963C93.1987 52.1159 93.3967 52.5744 93.6877 53.2193C93.7809 53.433 94.4601 54.9483 95.2014 56.5917C95.9388 58.2352 96.5404 59.6028 96.5404 59.63C96.5404 59.6572 96.3424 59.6727 96.1018 59.6572L95.671 59.63L94.6037 57.2639C94.0176 55.9662 93.5208 54.8278 93.4937 54.754C93.4587 54.6064 93.1754 54.5986 89.042 54.5986H84.633L84.5127 54.8822C84.4545 55.0298 84.3147 55.3562 84.2022 55.5893C84.0896 55.8302 83.9266 56.1915 83.8412 56.4052C83.7481 56.6189 83.3871 57.4387 83.034 58.2274L82.3974 59.665L81.9433 59.6727H81.497L81.6173 59.3969L81.6406 59.3852ZM93.0435 53.6661C92.9231 53.4252 92.535 52.5744 91.4444 50.115C90.8855 48.8601 90.3461 47.6284 90.2335 47.3875C89.7445 46.3036 89.6164 46.0044 89.4534 45.5964C89.3486 45.3633 89.2283 45.0564 89.1701 44.9087L89.0653 44.6523L88.945 44.9087C88.8867 45.0564 88.6539 45.5964 88.4365 46.1132C88.2114 46.6377 87.9824 47.1816 87.9203 47.3176C87.7224 47.7566 85.4713 52.8075 85.3432 53.0794C85.2734 53.2271 85.188 53.4485 85.1375 53.5768L85.0444 53.8099H89.0847C92.9076 53.8099 93.125 53.8021 93.0473 53.6622L93.0435 53.6661Z" fill="#FF8E80"/>
<path d="M44.9598 58.8763C44.5988 58.7714 43.2404 57.3028 43.3957 57.1823C43.7915 56.856 45.3052 56.1333 45.5769 56.1333C45.7127 56.1333 45.9378 56.211 46.0737 56.3043C46.3997 56.5179 46.7878 56.5179 47.0634 56.3043C47.4088 56.0362 47.7581 56.0906 48.6624 56.5723C49.1165 56.8054 49.5822 57.0619 49.6831 57.1318L49.8811 57.26L49.392 57.7845C48.577 58.6859 48.3791 58.8607 48.0957 58.919C47.6921 58.9967 45.2586 58.9695 44.9598 58.8763V58.8763Z" fill="#FF8E80"/>
<path d="M38.0397 43.1607V42.6517L37.6205 42.5662L37.2013 42.4807L37.0888 42.8265C36.9762 43.1801 36.8055 43.3161 36.658 43.1723C36.5998 43.114 36.6153 42.9742 36.7007 42.7605C36.8909 42.3214 36.8714 42.2437 36.6075 42.1233C36.4096 42.0378 36.3514 42.0456 36.1612 42.1816C35.7925 42.4497 35.7498 42.4574 35.6372 42.3292C35.5519 42.2243 35.5868 42.1583 35.808 41.9523C36.0486 41.7387 36.0642 41.6843 35.9788 41.5133C35.8934 41.3501 35.8313 41.3346 35.5325 41.3851C35.2336 41.4356 35.1987 41.4278 35.222 41.2919C35.2491 41.1364 35.4704 40.9927 35.874 40.8722C36.0215 40.8295 36.1069 40.8723 36.2621 41.051C36.984 41.9523 37.473 42.2282 38.42 42.2709C39.6504 42.3292 40.578 41.9951 41.0398 41.2996C41.1524 41.1364 41.2804 41.0005 41.3309 41.0005C41.459 41.0005 41.9907 41.5405 41.9907 41.6726C41.9907 41.8708 41.7501 41.8785 41.5521 41.6998L41.3619 41.5211L41.2145 41.762C41.1368 41.8902 41.0088 42.0456 40.9311 42.1155C40.7953 42.2204 40.7953 42.2437 40.9311 42.4769C41.0515 42.675 41.0592 42.7449 40.9661 42.8304C40.8807 42.9237 40.8186 42.9003 40.6672 42.71C40.4887 42.4691 40.477 42.4691 39.988 42.574L39.4912 42.6789L39.5494 43.048C39.5921 43.3394 39.5766 43.4248 39.4641 43.4676C39.2739 43.5453 39.2312 43.4948 39.1807 43.0791C39.1303 42.7255 39.1303 42.7255 38.7616 42.7255H38.3929L38.3657 43.1723C38.3502 43.5259 38.3075 43.6385 38.1949 43.6541C38.0591 43.6813 38.0397 43.6113 38.0397 43.1723V43.1607Z" fill="#FF8E80"/>
<path d="M54.8568 43.6075C54.8218 43.5725 54.7986 43.3588 54.7986 43.1257V42.7139H54.4104C54.065 42.7139 54.0223 42.741 54.0223 42.912C54.0223 43.2811 53.9175 43.487 53.739 43.487C53.5838 43.487 53.576 43.4443 53.6187 43.0752L53.6691 42.6556L53.1801 42.5623C52.7144 42.4768 52.6833 42.4846 52.5203 42.6828C52.2021 43.0519 51.9537 42.8965 52.1943 42.4769C52.3418 42.2204 52.3418 42.2204 52.0662 41.9368C51.911 41.7814 51.7907 41.6182 51.7907 41.5832C51.7907 41.5405 51.7053 41.5832 51.6005 41.6881C51.3754 41.8941 51.2822 41.9018 51.2124 41.7231C51.1619 41.5755 51.6587 41.0005 51.8489 41.0005C51.9187 41.0005 52.0041 41.0937 52.0391 41.2064C52.0818 41.3113 52.2797 41.5405 52.4776 41.7037C53.3121 42.4186 55.4157 42.4846 56.1453 41.8241C56.5839 41.4278 56.8594 41.117 56.8594 41.0238C56.8594 40.8334 57.1932 40.8178 57.5891 40.9888C58.1053 41.2141 58.1286 41.4706 57.6318 41.3929C57.3485 41.3501 57.2786 41.3657 57.1932 41.5211C57.1156 41.6765 57.135 41.7348 57.3213 41.9329C57.7172 42.3448 57.5192 42.5856 57.0807 42.2243C56.9177 42.0883 56.7818 42.0339 56.6499 42.0767C56.3044 42.1816 56.2617 42.2554 56.4015 42.6439C56.6266 43.2889 56.351 43.4715 56.091 42.8498L55.928 42.473L55.5321 42.5662L55.144 42.6517L55.1168 43.1257C55.0896 43.5647 54.9965 43.7434 54.849 43.6075H54.8568Z" fill="#FF8E80"/>
<path d="M48.7128 39.5124C49.1786 39.0734 50.0518 38.4012 50.4128 38.1953C50.6107 38.0827 50.5253 38.1526 49.5279 38.9607C48.6507 39.6678 48.2471 39.932 48.7128 39.5124V39.5124Z" fill="#FF8E80"/>
<path d="M28.329 37.5773C27.6071 37.449 26.6601 37.146 26.0935 36.8701C24.6652 36.163 23.4038 34.8925 22.8799 33.6376C22.6897 33.1908 22.7518 33.0859 23.6017 32.406C24.5022 31.6756 25.4492 31.151 26.4389 30.8247C27.1685 30.5838 27.3665 30.5488 28.2863 30.5488C29.179 30.5411 29.4118 30.576 30.0212 30.7742C31.3951 31.2288 32.3421 31.9631 33.1572 33.2102C33.5453 33.8047 33.9722 34.7682 33.8868 34.8537C33.8597 34.8809 33.7393 34.8382 33.619 34.7605C33.4987 34.6827 33.2736 34.5817 33.1222 34.5468C32.967 34.504 32.4508 34.3331 31.9812 34.1582C31.5077 33.9795 30.9333 33.7814 30.6926 33.7037C30.1958 33.556 28.4144 33.5133 27.3587 33.626L26.6795 33.7037L26.8774 33.9096C26.9822 34.0223 27.1103 34.1155 27.153 34.1155C27.1957 34.1155 27.3315 34.1854 27.4519 34.2709C27.5799 34.3642 27.9913 34.5468 28.3717 34.6827L29.0587 34.9314L30.8789 34.9042C32.5983 34.8887 33.1378 34.9314 33.6889 35.1451L33.9218 35.2306L33.5259 35.5764C31.8686 37.0139 29.7534 37.8298 28.329 37.5811V37.5773Z" fill="#FF8E80"/>
<path d="M63.3992 37.5501C62.2115 37.3014 60.7095 36.536 59.8168 35.7162C59.6616 35.588 59.4714 35.4248 59.386 35.3549C59.2308 35.2422 59.2308 35.2344 59.4442 35.149C60.073 34.9159 60.4572 34.8809 62.2038 34.9003C63.9309 34.9275 64.0667 34.9159 64.6373 34.7216C65.2815 34.5079 66.2169 34.0261 66.3915 33.828C66.4692 33.7231 66.4071 33.6998 66.0384 33.6493C64.9477 33.5133 63.5117 33.5016 62.8752 33.6221C62.2581 33.7425 60.3913 34.3719 59.6344 34.7138C59.2735 34.877 59.2657 34.877 59.2657 34.7138C59.2657 34.403 60.0381 33.0354 60.5271 32.4953C61.3189 31.6017 61.9631 31.1705 63.112 30.7742C63.698 30.576 63.9037 30.5488 64.8468 30.5488C65.7744 30.5488 66.0073 30.5838 66.5817 30.7819C67.1678 30.9801 67.7849 31.2637 68.4563 31.625C68.8095 31.8232 69.6595 32.4759 70.0786 32.88L70.4745 33.2491L70.1563 33.8668C69.512 35.1218 68.4369 36.1552 67.0902 36.8274C65.8171 37.4568 64.3306 37.7482 63.3953 37.5501H63.3992Z" fill="#FF8E80"/>
<path d="M72.7994 31.7957C72.4733 31.7102 71.9843 31.5548 71.7243 31.4422C71.1926 31.209 70.0049 30.4631 69.6207 30.1173C69.4849 29.9891 69.2675 29.8181 69.1666 29.7404L68.9609 29.6122L69.1744 29.4995C69.5858 29.2742 70.525 29.2004 72.0619 29.2586C73.5484 29.3091 73.5911 29.3091 74.3053 29.0799C75.26 28.7691 76.2575 28.2018 76.1022 28.0581C76.0867 28.0426 75.6054 27.9726 75.0466 27.9221C73.6028 27.7667 72.7877 27.8522 71.5652 28.2562C70.1912 28.7225 69.4072 29.0216 69.1317 29.177L68.8988 29.3053L69.1123 28.7302C69.2326 28.4117 69.3956 28.0503 69.4732 27.9299C69.5508 27.8094 69.6634 27.6463 69.7061 27.5685C70.1718 26.8304 70.9364 26.065 71.6156 25.6687C71.8912 25.5055 72.4307 25.2724 72.8265 25.1442C73.9016 24.7906 75.4657 24.81 76.4942 25.1869C77.7323 25.6415 78.7181 26.2281 79.6574 27.0712C80.0959 27.4598 80.1542 27.5452 80.1037 27.7434C79.9329 28.4583 78.8501 29.8414 77.9652 30.5058C77.123 31.1236 76.1527 31.5548 75.0621 31.8035C74.15 32.0016 73.6028 32.0016 72.8032 31.8035L72.7994 31.7957Z" fill="#FF8E80"/>
<path d="M17.6326 31.0503C17.0232 30.8716 16.1732 30.4831 15.529 30.114C15.1525 29.9003 14.2559 29.0455 13.8717 28.5404C13.5612 28.1364 12.9519 27.0796 12.9519 26.9397C12.9519 26.862 14.4034 25.6848 14.8692 25.3895C15.4358 25.0204 16.3712 24.6086 17.0698 24.4104C17.7218 24.2317 19.4412 24.2317 20.0855 24.4104C21.4516 24.8067 22.5694 25.6226 23.4194 26.8698C23.6872 27.2583 24.0908 28.082 24.1568 28.3656L24.2072 28.5987L23.8191 28.4355C23.6057 28.3423 23.0274 28.1364 22.5306 27.9615C22.0416 27.7984 21.4322 27.573 21.1799 27.472C20.7608 27.2933 20.6055 27.2816 19.0492 27.2933C18.1293 27.301 17.26 27.3438 17.1164 27.3865L16.8602 27.4642L17.3492 27.775C17.617 27.9538 17.8732 28.0936 17.9159 28.0936C17.9508 28.0936 18.1487 28.1713 18.3467 28.2646C18.991 28.5832 19.9457 28.7308 20.8112 28.6415C21.242 28.6065 21.8785 28.5715 22.2278 28.5715C22.8799 28.5715 24.118 28.8202 24.118 28.9484C24.118 29.1116 22.5383 30.2461 21.7815 30.6346C20.4425 31.3145 18.9793 31.4621 17.6326 31.0464V31.0503Z" fill="#FF8E80"/>
<path d="M31.0381 30.3779C29.3032 29.8805 27.5994 28.478 26.7572 26.8423C26.4117 26.1701 26.1206 25.2493 26.0857 24.7442C26.0508 24.2897 26.0585 24.2702 26.3535 24.1071C26.8619 23.8157 28.166 23.3572 28.8879 23.2134C29.7224 23.0503 30.9333 23.0347 31.6358 23.1785C32.5284 23.3572 33.6307 23.8856 34.1547 24.3674C34.2129 24.4256 34.3177 24.5033 34.3798 24.5383C34.6553 24.7093 35.4277 25.7777 35.6955 26.3605C35.9866 27.0132 36.3242 28.3148 36.3242 28.8471V29.1307L35.6644 28.6217C33.3513 26.8656 33.2077 26.7801 32.0394 26.411C31.3951 26.2051 30.1571 25.937 29.866 25.937C29.7806 25.937 29.7107 25.972 29.7107 26.0069C29.7107 26.0652 30.2696 26.6519 30.8518 27.1958C30.91 27.2463 31.2205 27.4445 31.5465 27.6426C32.1403 28.004 32.6992 28.2021 33.4017 28.3031C34.0887 28.408 34.8882 28.68 35.5325 29.0336C35.8779 29.2317 36.134 29.4221 36.1069 29.4532C36.037 29.5658 34.7989 30.0398 34.046 30.2341C33.1533 30.475 31.6397 30.5449 31.0381 30.3701V30.3779Z" fill="#FF8E80"/>
<path d="M59.9954 30.436C58.6215 30.1369 57.9229 29.9115 57.2281 29.5657L56.9526 29.4297L57.2281 29.2588C57.9229 28.8275 58.7224 28.5089 59.4986 28.3574C60.7872 28.0893 61.1986 27.9378 61.9748 27.4094C62.5065 27.0481 63.5389 25.9991 63.4031 25.9563C63.1042 25.8514 60.9618 26.4031 60.0963 26.7994C59.7354 26.9626 57.7754 28.338 57.3368 28.7343C57.2864 28.7848 57.1583 28.8975 57.0457 28.9907L56.84 29.1617L56.8905 28.474C56.9759 27.1491 57.4571 26.0651 58.4973 24.7907C58.7224 24.5149 59.7276 23.8194 60.2516 23.5863C60.989 23.2405 61.7807 23.0774 62.7083 23.0696C64.0163 23.054 65.0021 23.2833 66.4304 23.9399C67.0746 24.2313 67.0902 24.2507 67.0902 24.5499C67.0902 24.9462 66.8223 25.933 66.574 26.4847C66.1199 27.491 65.4484 28.3263 64.5131 29.0723C63.2051 30.1058 62.1921 30.5021 60.8881 30.4826C60.4922 30.4749 60.0963 30.4555 60.0032 30.4321L59.9954 30.436Z" fill="#FF8E80"/>
<path d="M39.1148 26.112C38.5287 26.0265 37.4653 25.7002 36.9141 25.4243C35.5751 24.7444 34.5001 23.3068 33.8985 21.3797C33.6229 20.4939 33.6229 18.5824 33.8907 17.8519L34.0615 17.3779H35.2569C36.9568 17.3779 38.2221 17.7237 39.433 18.5124C41.6841 19.9849 42.5768 22.6075 41.7345 25.2378C41.5366 25.8672 41.4008 26.1392 41.3891 25.9255C41.3891 25.7779 40.838 24.6861 40.6595 24.4724C40.6013 24.4025 40.3839 24.0178 40.1782 23.6215C39.7474 22.794 39.2506 22.2112 38.3657 21.4963C38.0203 21.2127 37.7292 20.964 37.7137 20.9291C37.6981 20.8863 37.636 20.8591 37.5662 20.8591C37.508 20.8591 37.4109 20.8008 37.3527 20.7309C37.2945 20.661 37.1276 20.5522 36.9918 20.4745L36.724 20.3463L36.7822 20.6921C36.953 21.776 38.2182 23.5633 39.1381 24.0373C39.5689 24.2626 40.5818 25.2339 40.9506 25.7934L41.2261 26.1975L40.4266 26.1897C39.988 26.1819 39.3942 26.147 39.1109 26.112H39.1148Z" fill="#FF8E80"/>
<path d="M52.0468 26.015C52.3573 25.4283 53.1645 24.6047 53.9214 24.0957C54.9615 23.408 55.7533 22.3939 56.2151 21.1701C56.5062 20.3969 56.4985 20.2998 56.188 20.463C55.9823 20.5679 55.338 21.0225 54.8722 21.3916C54.2862 21.8461 53.3702 22.8369 53.2383 23.136C53.1956 23.2293 53.0481 23.5051 52.9123 23.7382C52.7648 23.9791 52.431 24.5736 52.1632 25.0554L51.6819 25.949L51.5189 25.5954C51.321 25.1408 51.0998 23.9442 51.0998 23.2914C51.0998 21.8306 51.6936 20.3658 52.7066 19.3246C53.9679 18.0425 55.8697 17.3276 58.0587 17.3276C59.2696 17.3276 59.157 17.2227 59.3899 18.5747C59.8285 21.1817 58.3925 24.3288 56.2695 25.405C55.4117 25.8441 54.294 26.1121 53.083 26.1626L51.942 26.2132L52.0468 26.0072V26.015Z" fill="#FF8E80"/>
<path d="M45.8602 23.7033C44.0632 22.5338 43.0929 20.7971 43.0929 18.7573C43.0929 17.8016 43.2831 17.0012 43.7023 16.1348C44.0128 15.5054 44.8123 14.3553 45.1461 14.0601C45.2314 13.9823 45.5497 13.6987 45.8602 13.4306C46.1707 13.1548 46.52 12.8789 46.6519 12.8129C46.8771 12.7002 46.9197 12.708 47.2264 12.8984C47.6921 13.1975 48.4373 13.9668 48.8332 14.5496C49.3416 15.3228 49.6055 15.9444 49.8539 16.9429C50.0596 17.7588 50.0868 17.9919 50.0518 18.8778C50.0169 19.7558 49.9742 19.954 49.7413 20.494C49.5939 20.8398 49.3299 21.3449 49.1553 21.613C48.8293 22.122 46.9624 24.049 46.7994 24.049C46.7063 24.049 46.6636 23.5245 46.6946 22.7591C46.7218 22.2191 46.9081 21.2983 47.0828 20.867C47.4592 19.9462 47.2458 17.6228 46.714 16.8341C46.586 16.6437 46.5666 16.6709 46.3026 17.6073C45.9339 18.9322 45.8291 19.6393 45.8835 20.4707C45.9417 21.3838 46.1668 22.9379 46.3221 23.5323C46.3919 23.7887 46.4346 24.0141 46.4268 24.0296C46.4113 24.0374 46.159 23.8936 45.8602 23.7033V23.7033Z" fill="#FF8E80"/>
<path d="M26.827 20.4592C25.7287 20.3038 24.6769 19.8647 23.9666 19.247C22.5228 17.9998 21.6302 16.3058 21.405 14.3943C21.3468 13.8776 21.4206 12.8907 21.5331 12.7081C21.5681 12.6498 21.9795 12.5449 22.453 12.475C24.6264 12.1642 26.4234 12.4828 27.8672 13.4308C28.4532 13.8193 28.6589 14.0058 29.2178 14.6935C30.3084 16.0339 30.6888 17.7822 30.2929 19.6316L30.1998 20.0784L29.9591 19.7016C29.7263 19.3325 28.8685 18.2562 28.0341 17.2849C27.8284 17.044 27.3743 16.6478 27.0211 16.4146C26.3147 15.9406 24.7428 15.1403 24.6769 15.2102C24.5915 15.2957 25.0456 16.1737 25.457 16.7138C26.0236 17.4714 26.7649 18.0542 27.7003 18.5049C28.7909 19.0294 30.192 20.1833 29.866 20.3038C29.377 20.4747 27.6227 20.5719 26.8309 20.4592H26.827Z" fill="#FF8E80"/>
<path d="M64.2918 20.4859C64.2491 20.4587 63.9813 20.4276 63.7174 20.3926C63.4419 20.3577 63.2206 20.2994 63.2206 20.2566C63.2206 19.9458 64.4393 19.0095 65.5416 18.4772C66.2712 18.1159 66.5545 17.9255 67.0203 17.4554C67.6296 16.8376 68.0333 16.3636 68.0333 16.2781C68.0333 16.2432 68.1264 16.08 68.2312 15.9013C68.3438 15.7303 68.4563 15.4972 68.4874 15.3845C68.5301 15.2136 68.5029 15.1941 68.3515 15.2485C68.0061 15.3534 66.5972 16.1188 66.0578 16.4879C65.5183 16.8493 65.0797 17.2689 64.6838 17.7856C64.5635 17.941 64.2103 18.3801 63.9037 18.7647C63.5932 19.1416 63.2672 19.5728 63.1818 19.7282C63.0964 19.8837 62.9916 19.9847 62.9567 19.9691C62.9218 19.9419 62.8519 19.5379 62.7937 19.0677C62.6152 17.7079 62.8791 16.3481 63.5428 15.2213C64.1094 14.2423 65.4174 13.201 66.6205 12.7697C67.1949 12.5561 68.4602 12.3579 69.1976 12.3579C69.8264 12.3579 71.5535 12.5833 71.6389 12.6687C71.666 12.6959 71.6893 13.2865 71.6816 13.9781C71.6816 15.1398 71.666 15.2952 71.4332 15.9323C71.1149 16.8454 70.7617 17.4981 70.1873 18.2363C70.1175 18.3295 69.7914 18.6753 69.4577 19.0017C68.4447 20.0235 67.3541 20.4392 65.5066 20.4975C64.8973 20.5131 64.3539 20.5131 64.3035 20.4975L64.2918 20.4859Z" fill="#FF8E80"/>
<path d="M39.922 15.8314C38.3851 15.1709 36.9491 14.0247 36.3203 12.9602C35.8313 12.1249 35.6334 11.3672 35.5713 10.155C35.4936 8.44163 35.7964 7.22166 36.6114 5.94729C37.1354 5.13916 37.2401 5.077 37.7525 5.25183C38.8275 5.62093 40.1083 6.42129 40.9583 7.2644C43.3374 9.62275 43.3995 13.1039 41.1135 15.5672L40.7448 15.9557L40.7177 15.4662C40.7099 15.1981 40.64 14.5531 40.5702 14.0481C40.5003 13.5391 40.4421 12.9913 40.4421 12.8281C40.4421 12.424 40.0967 11.3905 39.7474 10.765C39.5921 10.4814 39.402 10.1356 39.3282 9.99185C38.975 9.34689 38.6762 8.91563 38.5986 8.94283C38.5481 8.95837 38.5132 9.43237 38.5132 10.1317C38.5132 11.1652 38.5403 11.3517 38.7538 11.9889C38.8819 12.3657 39.1419 12.8902 39.3205 13.1506C39.7396 13.7372 39.9919 14.2268 40.1976 14.8795C40.3606 15.404 40.4964 16.0567 40.4382 16.0567C40.4227 16.049 40.1898 15.9518 39.922 15.843V15.8314Z" fill="#FF8E80"/>
<path d="M52.7764 15.606C52.8618 14.9766 53.2422 14.0053 53.6458 13.403C54.3405 12.3696 54.7131 11.1923 54.7131 10.0384C54.7131 9.47893 54.6278 8.90391 54.5501 8.90391C54.4143 8.91168 53.4595 10.5396 53.0636 11.441C52.8502 11.9305 52.6095 13.4108 52.4349 15.2874C52.3844 15.8041 52.365 15.8546 52.237 15.7769C52.0584 15.6643 51.3676 14.7435 51.0842 14.2384C50.1644 12.5949 50.1295 10.5046 50.9989 8.86118C51.0687 8.72519 51.1696 8.52704 51.224 8.42991C51.3715 8.16183 52.0584 7.34593 52.3844 7.05453C52.5474 6.91855 52.7182 6.75537 52.7726 6.70874C52.9433 6.54556 54.0611 5.83845 54.4997 5.61699C55.0741 5.32559 55.8076 5.09248 55.9163 5.16241C56.0871 5.26731 56.6731 6.11818 56.9487 6.65824C57.4222 7.59458 57.5852 8.37163 57.593 9.63434C57.593 11.6119 57.1544 12.8241 56.0366 13.9353C55.7028 14.2617 55.3768 14.5803 55.307 14.623C54.8761 14.9416 54.62 15.1048 54.2862 15.2835C54.0727 15.3962 53.8205 15.5322 53.7273 15.5827C53.6342 15.6332 53.4013 15.7459 53.2111 15.8236C53.0209 15.909 52.8347 15.9945 52.792 16.0217C52.757 16.0372 52.7493 15.8508 52.7842 15.6021L52.7764 15.606Z" fill="#FF8E80"/>
<path d="M45.7593 10.8934C44.463 10.0231 43.5781 8.7876 43.2327 7.3656C43.0541 6.6274 43.0541 5.41131 43.2404 4.64591C43.3685 4.11363 44.0477 2.57119 44.2107 2.45074C44.2457 2.42355 44.4358 2.19432 44.6299 1.934C45.0956 1.32402 46.2018 0.309966 46.6908 0.0496535C46.8538 -0.0358222 46.9392 -0.0202812 47.2303 0.170096C47.9677 0.636328 48.9574 1.8291 49.3804 2.75768C49.8889 3.89217 50.1023 4.98393 50.0519 6.20779C50.0169 7.00038 49.9742 7.22184 49.7414 7.75801C49.5939 8.10379 49.33 8.60888 49.1553 8.87696C48.8371 9.35873 46.9625 11.313 46.8111 11.313C46.6908 11.313 46.6403 10.365 46.7335 9.63459C46.7762 9.25772 46.912 8.6555 47.0323 8.30194C47.2303 7.74247 47.2652 7.52101 47.2574 6.62351C47.2574 5.76487 47.2147 5.46959 47.0246 4.85183C46.6908 3.75231 46.6287 3.75231 46.3104 4.84406C45.802 6.55746 45.771 7.28012 46.062 9.37816C46.1397 9.90267 46.2522 10.5399 46.3182 10.7963C46.3881 11.0527 46.4308 11.2781 46.423 11.2936C46.4075 11.3014 46.1047 11.1226 45.7515 10.8895L45.7593 10.8934Z" fill="#FF8E80"/>
</svg>
