<svg width="36" height="36" viewBox="0 0 36 36" fill="none" xmlns="http://www.w3.org/2000/svg">
<path d="M5.20517 28.382C9.27597 29.7502 11.3547 32.7599 13.3166 33.4193C15.2785 34.0788 19.7813 34.3565 22.8485 25.4992C25.9156 16.6418 20.8236 13.479 18.6653 12.7542C8.56185 9.35784 -2.00483 25.9587 5.20517 28.382V28.382Z" fill="#F2BF9D"/>
<path d="M8 6.75H19.25C20.355 6.75 21.25 7.645 21.25 8.75V10.25V22.75V24.25C21.25 25.355 20.355 26.25 19.25 26.25H15.25H8V6.75Z" fill="#FFE5D9"/>
<path d="M15.25 10V28C15.25 28.69 14.69 29.25 14 29.25C13.86 29.25 13.73 29.23 13.6 29.19L7.6 27.19C7.11 27.02 6.75 26.55 6.75 26V8C6.75 7.31 7.31 6.75 8 6.75C8.14 6.75 8.27 6.77 8.4 6.81L14.4 8.81C14.89 8.98 15.25 9.45 15.25 10V10Z" fill="#FF8E80"/>
<path d="M14 30C13.785 30 13.582 29.97 13.379 29.907L7.363 27.902C6.544 27.616 6 26.854 6 26V8C6 6.897 6.897 6 8 6C8.215 6 8.418 6.03 8.621 6.093L14.637 8.098C15.456 8.384 16 9.146 16 10V28C16 29.103 15.103 30 14 30ZM8 7.5C7.724 7.5 7.5 7.725 7.5 8V26C7.5 26.213 7.643 26.411 7.847 26.482L13.837 28.478C13.88 28.492 13.935 28.5 14 28.5C14.276 28.5 14.5 28.275 14.5 28V10C14.5 9.787 14.357 9.589 14.153 9.518L8.163 7.522C8.12 7.508 8.065 7.5 8 7.5V7.5Z" fill="black"/>
<path d="M22 13.25H20.5V8.75C20.5 8.061 19.939 7.5 19.25 7.5H8V6H19.25C20.767 6 22 7.233 22 8.75V13.25Z" fill="black"/>
<path d="M19.25 27H15.25V25.5H19.25C19.939 25.5 20.5 24.939 20.5 24.25V19.75H22V24.25C22 25.767 20.767 27 19.25 27Z" fill="black"/>
<path d="M30.5901 16.9969H17.8564C17.3014 16.9969 16.8511 16.5465 16.8511 15.9916C16.8511 15.4367 17.3014 14.9863 17.8564 14.9863H30.5901C31.145 14.9863 31.5954 15.4367 31.5954 15.9916C31.5954 16.5465 31.145 16.9969 30.5901 16.9969Z" fill="black"/>
<path d="M25.5636 22.0232C25.3062 22.0232 25.049 21.9253 24.8531 21.7285C24.4604 21.3355 24.4604 20.6989 24.8531 20.3062L29.1693 15.9903L24.8531 11.6741C24.4604 11.2814 24.4604 10.6448 24.8531 10.2521C25.246 9.85916 25.8827 9.85916 26.2754 10.2521L31.3018 15.2785C31.6945 15.6712 31.6945 16.3079 31.3018 16.7006L26.2754 21.727C26.0783 21.9253 25.8211 22.0232 25.5636 22.0232V22.0232Z" fill="black"/>
</svg>
