<?xml version="1.0"?>
<svg xmlns="http://www.w3.org/2000/svg" xmlns:xlink="http://www.w3.org/1999/xlink" xmlns:svgjs="http://svgjs.com/svgjs" version="1.1" width="512" height="512" x="0" y="0" viewBox="0 0 512 512" style="enable-background:new 0 0 512 512" xml:space="preserve" class=""><g><path xmlns="http://www.w3.org/2000/svg" d="m302.305 297.99h26.333v34.964h-26.333z" fill="#7e788e" transform="matrix(.707 -.707 .707 .707 -130.673 315.473)" data-original="#7e788e" style=""/><path xmlns="http://www.w3.org/2000/svg" d="m293.8 312.42a145 145 0 1 1 18.62-18.62q-4.17 5.01-8.89 9.73t-9.73 8.89z" fill="#978cac" data-original="#978cac" style="" class=""/><path xmlns="http://www.w3.org/2000/svg" d="m284.43 117.57a117.988 117.988 0 1 1 -166.86 0 117.983 117.983 0 0 1 166.86 0z" fill="#f4f7f7" data-original="#a0eaea" style="" class=""/><path xmlns="http://www.w3.org/2000/svg" d="m447.17 404.55-70.56-70.56-42.62 42.62 70.56 70.56a30.137 30.137 0 0 0 42.62-42.62z" fill="#6d7486" data-original="#6d7486" style="" class=""/><path xmlns="http://www.w3.org/2000/svg" d="m310.578 320.089h60.274v41.253h-60.274z" fill="#b0b5ca" transform="matrix(.707 -.707 .707 .707 -141.129 340.716)" data-original="#b0b5ca" style="" class=""/><path xmlns="http://www.w3.org/2000/svg" d="m147.57 284.43a117.989 117.989 0 0 1 68.43-200.461 117.988 117.988 0 1 0 0 234.062 117.448 117.448 0 0 1 -68.43-33.601z" fill="#f4f7f7" data-original="#86bfbe" style="" class=""/><path xmlns="http://www.w3.org/2000/svg" d="m120.136 253.867a6 6 0 0 1 -5.311-3.2 102.761 102.761 0 0 1 -7.485-76.811 6 6 0 1 1 11.5 3.434 90.662 90.662 0 0 0 6.6 67.771 6 6 0 0 1 -5.3 8.8zm2.732-94.363a6 6 0 0 1 -5.125-9.11c1.584-2.615 3.308-5.187 5.124-7.646a6 6 0 1 1 9.653 7.128c-1.6 2.166-3.119 4.433-4.515 6.737a6 6 0 0 1 -5.137 2.887z" fill="#536272" data-original="#f4f8fc" style="" class=""/></g></svg>
