<svg width="8" height="11" viewBox="0 0 8 11" fill="none" xmlns="http://www.w3.org/2000/svg">
<path d="M7.0195 6.68014C7.24758 6.45636 7.60665 6.45636 7.83472 6.68014C8.05509 6.90392 8.05509 7.25622 7.83472 7.48L4.41872 10.8322C4.3129 10.936 4.16598 11 4.00315 11C3.84031 11 3.69339 10.936 3.58706 10.8322L0.171057 7.48C-0.057019 7.25622 -0.057019 6.90392 0.171057 6.68014C0.399133 6.45636 0.758199 6.45636 0.986275 6.68014L3.42422 9.08023V0.559954C3.42371 0.247972 3.68466 0 4.00263 0C4.3206 0 4.57334 0.247972 4.57334 0.559954V9.07972L7.0195 6.68014Z" fill="#1E201D"/>
</svg>
