<svg width="76" height="76" viewBox="0 0 76 76" fill="none" xmlns="http://www.w3.org/2000/svg">
<path d="M39.1301 57.5832C38.4534 57.9636 37.6266 57.9648 36.9488 57.5838L0.148438 36.9284V67.8359C0.148438 72.3377 3.81067 75.9999 8.3125 75.9999H67.6875C72.1893 75.9999 75.8516 72.3377 75.8516 67.8359V36.9272L39.1301 57.5832Z" fill="#F08D80"/>
<path d="M71.3984 30.3972V34.4711L74.006 33.0047L71.3984 30.3972Z" fill="#F08D80"/>
<path d="M38 22.4141C36.7725 22.4141 35.7734 23.4131 35.7734 24.6406V29.0938C35.7734 30.3213 36.7725 31.3203 38 31.3203C39.2275 31.3203 40.2266 30.3213 40.2266 29.0938V24.6406C40.2266 23.4131 39.2275 22.4141 38 22.4141Z" fill="#F08D80"/>
<path d="M66.9453 36.8276V8.16406C66.9453 3.66223 63.2831 0 58.7812 0H17.2188C12.7169 0 9.05469 3.66223 9.05469 8.16406V36.8212L38.0371 53.0884L66.9453 36.8276ZM22.4141 29.0938V24.6406C22.4141 16.0463 29.4057 9.05469 38 9.05469C46.5943 9.05469 53.5859 16.0463 53.5859 24.6406V29.143C53.5859 35.4319 46.4459 37.9177 42.3696 34.1395C38.0597 37.8777 31.3203 34.8028 31.3203 29.0938V24.6406C31.3203 20.9575 34.3169 17.9609 38 17.9609C41.6831 17.9609 44.6797 20.9575 44.6797 24.6406C44.6797 30.0186 44.6808 28.9465 44.6774 29.1923C44.7411 32.146 49.1328 32.3275 49.1328 29.143V24.6406C49.1328 18.5019 44.1387 13.5078 38 13.5078C31.8613 13.5078 26.8672 18.5019 26.8672 24.6406V29.0938C26.8672 35.2325 31.8613 40.2266 38 40.2266H42.4531C43.683 40.2266 44.6797 41.2233 44.6797 42.4531C44.6797 43.683 43.683 44.6797 42.4531 44.6797H38C29.4057 44.6797 22.4141 37.688 22.4141 29.0938Z" fill="#F08D80"/>
<path d="M4.60135 30.3972L1.99268 33.0059L4.60135 34.47V30.3972Z" fill="#F08D80"/>
</svg>
