<svg width="95" height="95" viewBox="0 0 95 95" fill="none" xmlns="http://www.w3.org/2000/svg">
<g clip-path="url(#clip0)">
<path d="M88.1485 0H6.8515C3.06728 0 0 3.06728 0 6.8515V88.1485C0 91.9327 3.06728 95 6.8515 95H88.1485C91.9327 95 95 91.9327 95 88.1485V6.8515C95 3.06728 91.9327 0 88.1485 0V0ZM71.2958 36.3596V42.7819C68.2673 42.783 65.3247 42.1896 62.5497 41.0187C60.7653 40.2653 59.1028 39.2946 57.5822 38.1217L57.6279 57.8903C57.6088 62.3417 55.8478 66.5241 52.6604 69.6743C50.0665 72.2386 46.7795 73.8694 43.217 74.3971C42.3798 74.521 41.528 74.5846 40.6665 74.5846C36.853 74.5846 33.2322 73.3491 30.2705 71.0698C29.7131 70.6407 29.1802 70.1755 28.6726 69.6743C25.2182 66.2603 23.437 61.6327 23.7368 56.7649C23.9658 53.0594 25.4492 49.5254 27.9224 46.7556C31.1945 43.0903 35.7721 41.0558 40.6665 41.0558C41.528 41.0558 42.3798 41.1203 43.217 41.2445V43.6191V50.2248C42.4234 49.9629 41.5757 49.819 40.693 49.819C36.2213 49.819 32.6037 53.4672 32.6705 57.942C32.7128 60.8052 34.277 63.308 36.5837 64.6876C37.6677 65.3361 38.9149 65.7376 40.2459 65.8107C41.2886 65.8678 42.2898 65.7227 43.217 65.4166C46.4118 64.3612 48.7164 61.3604 48.7164 57.8212L48.727 44.5832V20.4154H57.5717C57.5802 21.2917 57.6691 22.1469 57.8344 22.9753C58.502 26.3291 60.3924 29.2388 63.0234 31.2225C65.3175 32.9529 68.1742 33.9786 71.2706 33.9786C71.2726 33.9786 71.2981 33.9786 71.296 33.9766V36.3596H71.2958Z" fill="#F08D80"/>
</g>
<defs>
<clipPath id="clip0">
<rect width="95" height="95" fill="white"/>
</clipPath>
</defs>
</svg>
