<svg width="78" height="78" viewBox="0 0 78 78" fill="none" xmlns="http://www.w3.org/2000/svg">
<g clip-path="url(#clip0)">
<path d="M39.8344 18.962C29.1328 18.962 20.4296 27.6617 20.4248 38.3555C20.4236 42.0201 21.4496 45.5889 23.3913 48.6768L23.8525 49.4106L21.8923 56.5677L29.2352 54.642L29.9439 55.0621C32.9224 56.8296 36.337 57.7645 39.8183 57.7657H39.826C50.5192 57.7657 59.2225 49.0654 59.2272 38.371C59.229 33.1883 57.2129 28.3157 53.5501 24.6499C49.8873 20.9842 45.0158 18.9638 39.8344 18.962V18.962ZM51.2459 46.694C50.7597 48.0555 48.4299 49.2987 47.3093 49.4665C46.3042 49.6165 45.0331 49.6789 43.6358 49.2356C42.7884 48.9666 41.7024 48.6078 40.3104 48.0073C34.4601 45.4818 30.639 39.5927 30.3474 39.2035C30.0558 38.8143 27.9658 36.0418 27.9658 33.1717C27.9658 30.3021 29.4726 28.8912 30.007 28.308C30.542 27.7242 31.174 27.5784 31.5626 27.5784C31.9512 27.5784 32.3404 27.582 32.6801 27.5986C33.0384 27.6165 33.5192 27.4623 33.9923 28.5996C34.4785 29.7671 35.6449 32.6367 35.7907 32.9283C35.9365 33.2205 36.0335 33.5609 35.8395 33.95C35.6449 34.3392 34.7273 35.5116 34.3815 35.9442C34.1238 36.2655 33.7852 36.5506 34.1256 37.1344C34.4654 37.7176 35.6366 39.6272 37.3701 41.1733C39.5981 43.1597 41.4774 43.775 42.0606 44.0672C42.6432 44.3588 42.9836 44.31 43.324 43.9214C43.6638 43.5322 44.782 42.2189 45.1706 41.6351C45.5591 41.0513 45.9483 41.1489 46.4827 41.3435C47.0177 41.5375 49.8849 42.9484 50.4681 43.24C51.0513 43.5322 51.4399 43.678 51.5857 43.9214C51.732 44.1648 51.732 45.3318 51.2459 46.694V46.694Z" fill="#F08D80"/>
<path d="M72.3746 0H5.62541C2.51843 0 0 2.51843 0 5.62541V72.3746C0 75.4816 2.51843 78 5.62541 78H72.3746C75.4816 78 78 75.4816 78 72.3746V5.62541C78 2.51843 75.4816 0 72.3746 0V0ZM39.8266 61.707C39.826 61.707 39.8272 61.707 39.8266 61.707H39.8171C35.9103 61.7052 32.0713 60.7256 28.662 58.8666L16.2883 62.1116L19.6 50.0193C17.557 46.4809 16.4823 42.4664 16.4841 38.3537C16.4894 25.4878 26.9607 15.0207 39.8266 15.0207C46.0703 15.0231 51.9314 17.4535 56.338 21.8637C60.7453 26.2745 63.1709 32.1374 63.1685 38.3722C63.1631 51.2387 52.6907 61.707 39.8266 61.707V61.707Z" fill="#F08D80"/>
</g>
<defs>
<clipPath id="clip0">
<rect width="78" height="78" fill="white"/>
</clipPath>
</defs>
</svg>
