<svg width="88" height="88" viewBox="0 0 88 88" fill="none" xmlns="http://www.w3.org/2000/svg">
<path d="M75.1094 0H12.8906C5.78333 0 0 5.78333 0 12.8906V75.1094C0 82.2167 5.78333 88 12.8906 88H75.1094C82.2167 88 88 82.2167 88 75.1094V12.8906C88 5.78333 82.2167 0 75.1094 0ZM44.1719 67.0312C31.3773 67.0312 20.9688 56.6227 20.9688 43.8281C20.9688 31.0335 31.3773 20.625 44.1719 20.625C56.9665 20.625 67.375 31.0335 67.375 43.8281C67.375 56.6227 56.9665 67.0312 44.1719 67.0312ZM69.9531 25.7812C65.6885 25.7812 62.2188 22.3115 62.2188 18.0469C62.2188 13.7822 65.6885 10.3125 69.9531 10.3125C74.2178 10.3125 77.6875 13.7822 77.6875 18.0469C77.6875 22.3115 74.2178 25.7812 69.9531 25.7812Z" fill="#F08D80"/>
<path d="M69.9531 15.4688C68.5305 15.4688 67.375 16.6242 67.375 18.0469C67.375 19.4695 68.5305 20.625 69.9531 20.625C71.3758 20.625 72.5312 19.4695 72.5312 18.0469C72.5312 16.6242 71.3758 15.4688 69.9531 15.4688Z" fill="#F08D80"/>
<path d="M44.1719 25.7812C34.2219 25.7812 26.125 33.8782 26.125 43.8281C26.125 53.7781 34.2219 61.875 44.1719 61.875C54.1218 61.875 62.2188 53.7781 62.2188 43.8281C62.2188 33.8782 54.1218 25.7812 44.1719 25.7812Z" fill="#F08D80"/>
</svg>
