<svg width="110" height="110" viewBox="0 0 110 110" fill="none" xmlns="http://www.w3.org/2000/svg">
<path d="M99 0H11C4.95 0 0 4.95 0 11V99C0 105.05 4.95 110 11 110H99C105.05 110 110 105.05 110 99V11C110 4.95 105.05 0 99 0ZM33 93.5H16.5V44H33V93.5ZM24.75 34.65C19.25 34.65 14.85 30.25 14.85 24.75C14.85 19.25 19.25 14.85 24.75 14.85C30.25 14.85 34.65 19.25 34.65 24.75C34.65 30.25 30.25 34.65 24.75 34.65ZM93.5 93.5H77V64.35C77 59.9502 73.15 56.1 68.75 56.1C64.35 56.1 60.5 59.9502 60.5 64.35V93.5H44V44H60.5V50.6C63.25 46.2 69.3 42.9 74.25 42.9C84.7 42.9 93.5 51.7 93.5 62.15V93.5Z" fill="#F08D80"/>
</svg>
